# xmcd
#
# Track frame offsets:
#	150
#	14182
#	38397
#	53522
#	66622
#	78140
#	105142
#	129782
#	155102
#	180912
#	197580
#	230525
#	245977
#	267700
#	300822
#	319157
#	337577
#
# Disc length: 4746
#
# Revision: 1
# Processed by: cddbd v1.5.1PL0 Copyright (c) Steve Scherf et al.
# Submitted via: CDex 1.50
# Normalized: r0:TDELIM( - )
#
DISCID=d5128811
DTITLE=Various Artist - Cool Summer Jazz [CD 1)
DYEAR=2003
DGENRE=Jazz
TTITLE0=Norah Jones - Don't Know Why
TTITLE1=Astrud Gilberto - The Girl From Ipanema
TTITLE2=Peggy Lee - Fever
TTITLE3=Nina Simone - Feeling Good
TTITLE4=Julie London - Fly Me To The Moon
TTITLE5=Weather Report - Birdland
TTITLE6=Herbie Hancock - Cantaloupe Island
TTITLE7=George Benson - Breezin'
TTITLE8=Earth, Wind and Fire - That's The Way Of The World
TTITLE9=Luther Vandross - So Amazing
TTITLE10=Grover Washington feat. Bill Withers - Just The Two Of Us
TTITLE11=Earl Klugh - Dance With Me
TTITLE12=Jean Carn - Don't Let It Go To Your Head
TTITLE13=Bob James - Westchester Lady
TTITLE14=The Blackbyrds - Walking In Rythmn
TTITLE15=Incognito - Don't You Worry 'Bout A Thing
TTITLE16=Quincy Jones - Razzamatazz
EXTD=YEAR: 2003
EXTT0=
EXTT1=
EXTT2=
EXTT3=
EXTT4=
EXTT5=
EXTT6=
EXTT7=
EXTT8=
EXTT9=
EXTT10=
EXTT11=
EXTT12=
EXTT13=
EXTT14=
EXTT15=
EXTT16=
PLAYORDER=
